<?xml version="1.0" standalone="no"?>
<!DOCTYPE svg PUBLIC "-//W3C//DTD SVG 20010904//EN"
 "http://www.w3.org/TR/2001/REC-SVG-20010904/DTD/svg10.dtd">
<svg version="1.0" xmlns="http://www.w3.org/2000/svg"
 width="482.000000pt" height="482.000000pt" viewBox="0 0 482.000000 482.000000"
 preserveAspectRatio="xMidYMid meet">
<metadata>
Created by potrace 1.14, written by Peter Selinger 2001-2017
</metadata>
<g transform="translate(0.000000,482.000000) scale(0.100000,-0.100000)"
fill="#000000" stroke="none">
<path d="M2275 4770 c-22 -3 -66 -5 -97 -5 -32 0 -58 -3 -58 -6 0 -4 -12 -7
-27 -7 -43 -1 -106 -9 -123 -15 -8 -4 -33 -8 -55 -10 -22 -2 -45 -6 -50 -9
-12 -6 -64 -21 -85 -23 -21 -2 -103 -26 -115 -33 -5 -4 -14 -7 -20 -9 -5 -1
-20 -4 -32 -7 -12 -2 -31 -10 -42 -16 -12 -6 -21 -7 -21 -3 0 4 -4 2 -8 -5 -5
-7 -19 -14 -32 -17 -13 -2 -51 -18 -86 -35 -35 -16 -66 -30 -70 -30 -4 0 -13
-8 -21 -17 -8 -10 -12 -13 -9 -6 7 14 -50 -13 -59 -28 -4 -5 -11 -7 -16 -4 -5
4 -9 -1 -9 -10 0 -9 -5 -13 -10 -10 -6 3 -23 -3 -39 -14 -16 -12 -33 -21 -38
-21 -6 0 -18 -9 -28 -20 -10 -11 -23 -20 -29 -20 -10 0 -28 -13 -83 -60 -7 -5
-15 -10 -18 -10 -7 0 -29 -18 -60 -50 -14 -14 -25 -22 -25 -18 0 4 -12 -5 -27
-19 -16 -14 -27 -29 -26 -34 2 -4 -5 -5 -14 -2 -10 4 -14 2 -9 -5 3 -6 -3 -13
-14 -17 -11 -4 -18 -11 -15 -16 4 -5 -1 -9 -9 -9 -9 0 -16 -4 -16 -10 0 -5 -7
-10 -16 -10 -10 0 -14 -6 -11 -14 3 -8 -2 -16 -15 -19 -11 -3 -17 -10 -13 -16
3 -6 -1 -11 -10 -11 -10 0 -13 -5 -9 -12 5 -8 2 -9 -9 -5 -11 4 -17 1 -17 -9
0 -8 -7 -17 -15 -20 -8 -4 -12 -10 -9 -15 3 -5 -3 -9 -12 -9 -10 0 -14 -3 -11
-6 4 -4 -3 -15 -15 -25 -11 -11 -19 -19 -16 -19 3 0 -14 -21 -38 -47 -24 -27
-44 -52 -44 -56 0 -4 -11 -20 -25 -35 -14 -15 -28 -36 -32 -47 -3 -11 -16 -30
-29 -42 -13 -12 -24 -29 -24 -38 0 -8 -4 -15 -10 -15 -5 0 -10 -6 -10 -14 0
-7 -7 -19 -15 -26 -8 -7 -12 -16 -9 -21 3 -5 0 -9 -5 -9 -6 0 -11 -6 -11 -14
0 -8 -6 -21 -13 -28 -18 -19 -38 -68 -32 -79 4 -5 2 -9 -3 -9 -6 0 -20 -18
-31 -41 -12 -22 -16 -37 -9 -33 7 4 5 -2 -5 -13 -10 -11 -20 -31 -22 -44 -3
-13 -9 -25 -15 -27 -5 -2 -10 -14 -10 -27 0 -13 -5 -27 -11 -30 -6 -4 -8 -13
-5 -21 3 -8 0 -14 -6 -14 -6 0 -8 -3 -5 -6 3 -4 2 -15 -4 -26 -6 -11 -12 -28
-15 -39 -5 -24 -9 -41 -28 -107 -8 -29 -15 -55 -15 -57 -1 -3 -1 -6 -2 -7 -4
-13 -20 -102 -25 -138 -3 -19 -10 -40 -16 -47 -7 -9 -7 -13 0 -13 6 0 9 -10 6
-22 -11 -45 -14 -75 -18 -160 -3 -48 -7 -92 -11 -98 -3 -5 -2 -10 4 -10 10 0
9 -19 -2 -37 -5 -8 -3 -13 4 -13 8 0 8 -4 -1 -15 -7 -8 -9 -15 -4 -15 5 0 10
-35 10 -78 3 -124 6 -156 18 -171 9 -12 8 -13 -3 -6 -10 6 -12 4 -6 -5 8 -13
12 -34 17 -92 1 -16 5 -28 8 -28 3 0 6 -15 8 -33 3 -46 6 -60 15 -74 5 -7 6
-13 3 -13 -3 0 1 -18 9 -41 8 -23 12 -45 9 -50 -3 -5 0 -9 7 -9 7 0 10 -3 6
-6 -3 -3 1 -24 9 -46 7 -22 11 -44 8 -49 -3 -5 1 -12 9 -15 9 -3 13 -13 10
-25 -3 -11 0 -19 8 -19 7 0 10 -3 6 -6 -3 -4 0 -19 9 -35 8 -16 15 -32 16 -36
0 -5 7 -21 14 -38 7 -16 10 -33 8 -37 -3 -5 -1 -8 5 -8 10 0 27 -38 23 -52 -1
-5 3 -8 9 -8 5 0 7 -4 4 -10 -3 -5 -1 -10 5 -10 6 0 9 -4 5 -9 -3 -5 1 -16 9
-24 8 -8 12 -17 9 -21 -4 -3 -1 -6 5 -6 7 0 12 -3 11 -7 -2 -16 14 -53 23 -53
5 0 6 -5 3 -10 -3 -5 -2 -10 4 -10 6 0 13 -11 17 -25 3 -14 10 -25 15 -25 5 0
9 -7 9 -15 0 -8 5 -15 12 -15 6 0 8 -3 5 -6 -3 -4 2 -18 13 -32 11 -13 17 -29
13 -36 -3 -6 -2 -8 2 -3 5 4 21 -13 37 -38 15 -25 33 -45 39 -45 5 0 7 -4 4
-10 -3 -5 -2 -10 2 -10 5 0 17 -14 27 -31 10 -16 33 -46 52 -65 19 -19 32 -34
30 -34 -3 0 10 -16 29 -36 19 -20 35 -40 35 -45 0 -5 7 -9 17 -9 9 0 14 -3 10
-6 -7 -8 36 -53 46 -47 4 2 7 -1 7 -7 0 -15 25 -40 40 -40 6 0 8 -5 5 -10 -3
-6 -1 -10 5 -10 15 0 41 -26 33 -34 -4 -3 1 -6 10 -6 10 0 17 -4 17 -10 0 -5
4 -10 10 -10 5 0 27 -18 49 -39 22 -21 42 -37 44 -35 2 2 15 -6 29 -18 36 -33
115 -88 126 -88 5 0 12 -7 16 -15 3 -8 12 -15 20 -15 8 0 21 -6 28 -13 7 -7
30 -21 51 -30 20 -10 37 -22 37 -27 0 -6 3 -9 8 -8 4 1 17 -3 30 -10 12 -7 28
-10 34 -6 7 4 8 3 4 -4 -5 -8 0 -12 13 -12 12 0 21 -3 21 -7 0 -9 49 -33 67
-33 7 0 13 -5 13 -12 0 -6 3 -8 7 -5 3 4 17 0 30 -8 13 -9 23 -13 23 -10 0 3
17 -3 39 -14 21 -11 42 -17 46 -13 3 4 12 0 18 -8 7 -9 19 -15 27 -15 8 0 17
-3 20 -7 3 -3 17 -9 30 -11 14 -2 33 -7 42 -11 9 -4 25 -9 35 -11 10 -2 18 -4
18 -5 0 -1 9 -3 20 -4 11 -2 38 -8 60 -14 22 -6 54 -14 70 -17 17 -2 44 -8 60
-11 17 -3 39 -7 51 -8 11 -2 27 -7 34 -11 9 -6 11 -4 5 6 -7 11 -6 12 6 3 8
-6 22 -10 32 -9 9 2 17 0 17 -3 0 -4 28 -8 63 -9 195 -7 239 -8 243 -2 4 7 94
2 102 -5 2 -3 11 2 19 10 12 11 18 12 29 3 9 -7 14 -8 14 -1 0 6 11 9 26 6 17
-3 23 -1 19 7 -6 8 -2 8 14 0 16 -9 21 -9 21 0 0 9 4 9 14 0 11 -9 17 -9 27 2
8 8 21 12 31 9 10 -2 24 0 31 5 6 5 28 9 47 8 19 0 37 3 40 7 6 7 69 23 113
27 5 1 5 7 1 14 -5 8 -2 8 9 -2 9 -7 17 -9 17 -4 0 9 13 12 70 16 17 1 30 5
30 8 0 8 51 23 64 20 5 -1 12 3 16 9 4 6 20 12 36 14 16 2 29 8 29 14 0 6 4
14 9 19 5 5 6 3 2 -4 -4 -8 -1 -13 9 -13 8 0 18 7 21 15 5 11 10 13 19 5 9 -8
14 -6 19 5 3 9 10 13 16 10 5 -3 10 -1 10 5 0 6 4 9 9 5 5 -3 12 -1 16 5 4 6
10 8 15 5 5 -3 14 0 22 7 7 7 20 14 28 16 8 2 17 7 20 10 3 4 16 13 29 20 19
11 22 11 15 0 -4 -7 4 -3 18 10 13 12 32 22 41 22 9 0 17 4 17 9 0 5 9 13 20
16 11 3 26 13 34 20 8 8 20 16 27 17 7 2 21 12 31 23 9 11 17 16 18 12 0 -8
13 1 51 35 10 10 19 15 19 12 0 -4 11 4 24 17 32 32 76 69 76 63 0 -3 7 1 15
10 8 8 15 20 15 26 0 6 4 9 9 5 6 -3 14 1 18 10 5 8 24 26 43 40 19 14 34 28
33 30 -2 3 -1 5 2 5 9 -1 55 52 55 62 0 5 4 7 9 3 5 -3 12 4 16 15 3 11 13 20
21 20 8 0 12 4 9 10 -3 5 -1 10 5 10 6 0 8 5 5 10 -3 6 0 10 8 10 15 0 32 27
28 43 -1 5 3 6 9 2 5 -3 10 1 10 10 0 9 5 13 10 10 6 -3 10 0 10 8 0 8 7 18
16 21 9 4 14 9 11 13 -4 3 1 13 11 22 9 9 24 25 32 35 13 18 13 19 0 12 -8 -4
-2 4 13 18 15 14 25 26 22 26 -6 0 5 15 55 76 5 7 6 15 3 18 -4 3 -1 6 5 6 6
0 9 6 6 14 -3 7 2 16 11 20 9 3 13 10 10 16 -3 5 -2 10 4 10 10 0 27 38 23 52
-1 5 4 8 11 8 7 0 13 9 14 21 1 11 10 33 20 47 9 15 16 33 15 41 -2 7 1 10 7
6 7 -4 11 4 11 19 0 14 5 26 11 26 5 0 7 5 4 10 -3 6 -2 10 2 10 8 0 12 15 15
57 1 7 5 10 10 7 6 -4 12 20 6 29 -1 1 5 13 12 27 8 14 15 34 15 45 1 11 6 19
13 18 6 -2 9 4 6 12 -4 9 -1 22 6 30 7 8 10 24 7 34 -3 11 -1 21 4 23 5 2 10
18 12 36 1 17 5 32 8 32 4 0 5 10 5 22 -1 13 2 28 6 34 5 7 8 16 7 20 -1 5 0
11 1 14 7 20 28 158 33 220 1 14 6 28 12 32 6 5 6 8 -1 8 -8 0 -10 11 -5 32 3
18 6 61 5 95 -1 40 2 60 9 56 6 -4 7 -1 1 8 -4 8 -9 41 -11 74 -3 68 -9 154
-19 235 -3 30 -6 61 -7 68 0 6 -5 12 -11 12 -6 0 -6 4 1 11 8 8 6 25 -7 60
-10 27 -15 47 -10 44 4 -2 -3 32 -17 78 -13 45 -26 93 -29 107 -2 14 -7 32
-11 40 -3 8 -8 24 -10 34 -2 11 -8 25 -14 32 -5 6 -9 16 -8 20 2 5 -3 23 -10
39 -24 54 -44 107 -45 118 -1 4 -7 11 -14 16 -8 5 -13 11 -12 15 1 4 0 16 -3
27 -3 10 -6 23 -7 27 -1 4 -7 14 -14 22 -7 8 -20 31 -29 50 -9 19 -35 64 -57
100 -22 36 -43 73 -46 83 -4 9 -10 17 -15 17 -5 0 -9 7 -9 15 0 8 -4 15 -9 15
-5 0 -14 14 -21 30 -7 17 -16 30 -21 30 -5 0 -9 7 -9 16 0 8 -4 12 -10 9 -5
-3 -10 1 -10 9 0 9 -4 16 -10 16 -5 0 -10 5 -10 11 0 7 -10 20 -22 30 -11 11
-18 19 -15 19 7 0 -29 41 -120 136 -35 36 -63 70 -63 76 0 6 -3 9 -6 5 -8 -7
-34 17 -34 32 0 6 -9 11 -21 11 -11 0 -18 4 -14 9 7 12 -29 33 -40 23 -5 -4
-5 -2 -2 4 7 12 -28 46 -37 37 -3 -4 -6 1 -6 10 0 10 -4 17 -10 17 -5 0 -18
10 -30 22 -11 12 -20 19 -20 15 0 -6 -33 19 -65 50 -7 7 -15 9 -19 6 -3 -4 -6
-1 -6 5 0 7 -7 12 -15 12 -8 0 -15 5 -15 12 0 6 -3 8 -7 5 -3 -4 -13 2 -20 13
-8 11 -19 18 -24 15 -5 -4 -9 -1 -9 4 0 6 -7 11 -15 11 -8 0 -15 4 -15 8 0 5
-16 14 -35 22 -19 8 -35 17 -35 20 0 6 -52 33 -58 31 -1 -1 -9 5 -18 13 -8 8
-21 13 -29 10 -8 -4 -15 -1 -15 5 0 6 -6 11 -14 11 -8 0 -16 4 -18 10 -1 5
-12 11 -24 13 -12 1 -33 10 -47 20 -15 9 -31 17 -37 17 -6 0 -29 9 -53 19 -37
17 -75 31 -99 37 -5 1 -11 3 -15 4 -5 1 -11 2 -15 1 -5 0 -8 3 -8 7 0 5 -6 9
-12 10 -14 0 -19 2 -108 26 -30 8 -68 17 -85 19 -16 3 -43 10 -60 15 -16 5
-38 8 -47 6 -10 -1 -18 1 -18 5 0 4 -15 8 -32 9 -42 2 -113 9 -113 12 0 8
-299 17 -350 10z"/>
</g>
</svg>
